<svg width="788" height="787" viewBox="0 0 788 787" fill="none" xmlns="http://www.w3.org/2000/svg">
<path d="M110.667 394C111.167 394 111.6 393.867 112.067 393.867L143.4 534.733C130.876 540.286 119.916 548.845 111.493 559.65C103.07 570.455 97.4447 583.172 95.1156 596.672C92.7865 610.173 93.8259 624.04 98.1417 637.042C102.457 650.045 109.916 661.781 119.855 671.21C129.795 680.638 141.908 687.467 155.12 691.091C168.332 694.715 182.235 695.022 195.594 691.984C208.953 688.946 221.355 682.658 231.701 673.677C242.046 664.695 250.015 653.3 254.9 640.5L494.3 680.4C494.866 695.16 499.36 709.502 507.317 721.946C515.273 734.391 526.406 744.487 539.566 751.195C552.726 757.903 567.437 760.978 582.182 760.105C596.927 759.232 611.172 754.441 623.448 746.226C635.724 738.012 645.587 726.672 652.019 713.375C658.452 700.078 661.22 685.306 660.04 670.583C658.86 655.859 653.774 641.717 645.306 629.614C636.838 617.512 625.295 607.887 611.867 601.733L675.267 327.133C675.967 327.133 676.6 327.333 677.333 327.333C691.635 327.371 705.705 323.727 718.19 316.753C730.676 309.778 741.156 299.708 748.624 287.511C756.091 275.314 760.293 261.4 760.827 247.109C761.36 232.817 758.207 218.629 751.669 205.909C745.132 193.189 735.432 182.366 723.501 174.48C711.57 166.594 697.811 161.912 683.546 160.883C669.282 159.854 654.993 162.513 642.054 168.605C629.115 174.697 617.962 184.017 609.667 195.667L458.667 128.6C461.611 115.63 461.408 102.145 458.075 89.2695C454.742 76.3944 448.376 64.504 439.508 54.592C430.641 44.68 419.53 37.0343 407.104 32.2938C394.678 27.5533 381.298 25.8558 368.082 27.343C354.866 28.8302 342.198 33.4591 331.136 40.8427C320.074 48.2262 310.941 58.1501 304.498 69.785C298.055 81.4198 294.491 94.4277 294.103 107.722C293.715 121.015 296.514 134.209 302.267 146.2L165.7 248.567C155.617 239.639 143.517 233.293 130.439 230.076C117.362 226.858 103.698 226.864 90.6238 230.094C77.5492 233.323 65.4546 239.68 55.3795 248.617C45.3045 257.553 37.5505 268.803 32.7841 281.399C28.0177 293.995 26.3815 307.56 28.0162 320.928C29.6508 334.296 34.5075 347.067 42.1686 358.143C49.8296 369.219 60.066 378.269 71.9976 384.515C83.9292 390.761 97.1992 394.016 110.667 394ZM144.6 386.6C163.266 378.208 178.208 363.266 186.6 344.6L327.467 375.933C327.467 376.4 327.333 376.833 327.333 377.333C327.327 393.666 332.152 409.636 341.2 423.233L223.2 541.233C209.617 532.178 193.659 527.342 177.333 527.333C176.867 527.333 176.4 527.467 175.933 527.467L144.6 386.6ZM384.067 298.767C373.22 302.421 363.242 308.27 354.755 315.949C346.267 323.628 339.452 332.972 334.733 343.4L193.867 312.067C193.867 311.6 194 311.167 194 310.667C193.94 298.367 191.126 286.237 185.767 275.167L322.3 172.767C335.805 184.747 352.865 191.972 370.867 193.333L384.067 298.767ZM460.667 360.667V394C460.667 402.841 457.155 411.319 450.904 417.57C444.652 423.821 436.174 427.333 427.333 427.333H394C385.16 427.333 376.681 423.821 370.43 417.57C364.179 411.319 360.667 402.841 360.667 394V360.667C360.667 351.826 364.179 343.348 370.43 337.096C376.681 330.845 385.16 327.333 394 327.333H427.333C436.174 327.333 444.652 330.845 450.904 337.096C457.155 343.348 460.667 351.826 460.667 360.667ZM499.767 647.5L260.333 607.6C259.847 592.344 255.152 577.52 246.767 564.767L364.767 446.767C375.013 453.738 386.735 458.239 399.014 459.917C411.293 461.594 423.793 460.402 435.533 456.433L523.267 614.433C512.811 623.342 504.726 634.703 499.733 647.5H499.767ZM194 660.667H160.667C151.826 660.667 143.348 657.155 137.096 650.904C130.845 644.652 127.333 636.174 127.333 627.333V594C127.333 585.159 130.845 576.681 137.096 570.43C143.348 564.179 151.826 560.667 160.667 560.667H194C202.841 560.667 211.319 564.179 217.57 570.43C223.821 576.681 227.333 585.159 227.333 594V627.333C227.333 636.174 223.821 644.652 217.57 650.904C211.319 657.155 202.841 660.667 194 660.667ZM627.333 660.667V694C627.333 702.84 623.822 711.319 617.57 717.57C611.319 723.821 602.841 727.333 594 727.333H560.667C551.826 727.333 543.348 723.821 537.096 717.57C530.845 711.319 527.333 702.84 527.333 694V660.667C527.333 651.826 530.845 643.348 537.096 637.096C543.348 630.845 551.826 627.333 560.667 627.333H594C602.841 627.333 611.319 630.845 617.57 637.096C623.822 643.348 627.333 651.826 627.333 660.667ZM579.4 594.2C578.733 594.2 578.067 594 577.333 594C568.865 594.12 560.466 595.548 552.433 598.233L464.7 440.233C476.812 430.262 485.741 416.963 490.385 401.977C495.029 386.991 495.184 370.973 490.833 355.9L612.1 295.233C620.243 305.675 630.755 314.027 642.767 319.6L579.4 594.2ZM660.667 194H694C702.841 194 711.319 197.512 717.57 203.763C723.822 210.014 727.333 218.493 727.333 227.333V260.667C727.333 269.507 723.822 277.986 717.57 284.237C711.319 290.488 702.841 294 694 294H660.667C651.826 294 643.348 290.488 637.096 284.237C630.845 277.986 627.333 269.507 627.333 260.667V227.333C627.333 218.493 630.845 210.014 637.096 203.763C643.348 197.512 651.826 194 660.667 194ZM596.033 226.1C592.984 239.087 593.375 252.644 597.167 265.433L475.9 326.1C468.818 317.074 459.937 309.618 449.82 304.207C439.704 298.796 428.573 295.547 417.133 294.667L403.933 189.233C420.439 183.681 434.789 173.097 444.967 158.967L596.033 226.1ZM327.333 127.333V94C327.333 85.1595 330.845 76.681 337.097 70.4298C343.348 64.1786 351.826 60.6667 360.667 60.6667H394C402.841 60.6667 411.319 64.1786 417.57 70.4298C423.822 76.681 427.333 85.1595 427.333 94V127.333C427.333 136.174 423.822 144.652 417.57 150.904C411.319 157.155 402.841 160.667 394 160.667H360.667C351.826 160.667 343.348 157.155 337.097 150.904C330.845 144.652 327.333 136.174 327.333 127.333ZM60.6667 294C60.6667 285.159 64.1786 276.681 70.4298 270.43C76.681 264.179 85.1595 260.667 94 260.667H127.333C136.174 260.667 144.652 264.179 150.904 270.43C157.155 276.681 160.667 285.159 160.667 294V327.333C160.667 336.174 157.155 344.652 150.904 350.904C144.652 357.155 136.174 360.667 127.333 360.667H94C85.1595 360.667 76.681 357.155 70.4298 350.904C64.1786 344.652 60.6667 336.174 60.6667 327.333V294Z" fill="black" stroke="black" stroke-width="53"/>
</svg>
