<svg width="30" height="20" viewBox="0 0 30 20" fill="none" xmlns="http://www.w3.org/2000/svg">
<path d="M21.3741 9.99914C21.8392 9.99914 22.2997 9.90753 22.7294 9.72955C23.1591 9.55156 23.5495 9.29068 23.8784 8.96181C24.2073 8.63294 24.4682 8.24251 24.6461 7.81281C24.8241 7.38312 24.9157 6.92257 24.9157 6.45747C24.9157 5.51817 24.5426 4.61733 23.8784 3.95314C23.2142 3.28895 22.3134 2.91581 21.3741 2.91581C20.4348 2.91581 19.5339 3.28895 18.8697 3.95314C18.2055 4.61733 17.8324 5.51817 17.8324 6.45747C17.8324 6.92257 17.924 7.38312 18.102 7.81281C18.28 8.24251 18.5409 8.63294 18.8697 8.96181C19.5339 9.626 20.4348 9.99914 21.3741 9.99914V9.99914ZM10.7491 8.58247C11.8762 8.58247 12.9572 8.13471 13.7543 7.33768C14.5513 6.54065 14.9991 5.45964 14.9991 4.33247C14.9991 3.2053 14.5513 2.1243 13.7543 1.32727C12.9572 0.53024 11.8762 0.0824738 10.7491 0.0824738C9.62189 0.0824738 8.54089 0.53024 7.74386 1.32727C6.94683 2.1243 6.49906 3.2053 6.49906 4.33247C6.49906 5.45964 6.94683 6.54065 7.74386 7.33768C8.54089 8.13471 9.62189 8.58247 10.7491 8.58247ZM21.3741 12.8325C18.7816 12.8325 13.5824 14.1358 13.5824 16.7283V19.9158H29.1657V16.7283C29.1657 14.1358 23.9666 12.8325 21.3741 12.8325ZM10.7491 11.4158C7.44823 11.4158 0.832397 13.0733 0.832397 16.3741V19.9158H10.7491V16.7283C10.7491 15.5241 11.2166 13.4133 14.1066 11.8125C12.8741 11.5575 11.6841 11.4158 10.7491 11.4158Z" fill="black"/>
</svg>
