<svg width="21" height="21" viewBox="0 0 21 21" fill="none" xmlns="http://www.w3.org/2000/svg">
<path d="M10.5006 0.831894C11.7825 0.831894 13.0119 1.34112 13.9183 2.24754C14.8248 3.15397 15.334 4.38335 15.334 5.66523C15.334 6.94711 14.8248 8.17648 13.9183 9.08291C13.0119 9.98933 11.7825 10.4986 10.5006 10.4986C9.21877 10.4986 7.98939 9.98933 7.08297 9.08291C6.17654 8.17648 5.66732 6.94711 5.66732 5.66523C5.66732 4.38335 6.17654 3.15397 7.08297 2.24754C7.98939 1.34112 9.21877 0.831894 10.5006 0.831894V0.831894ZM10.5006 12.9152C15.8415 12.9152 20.1673 15.0781 20.1673 17.7486V20.1652H0.833984V17.7486C0.833984 15.0781 5.15982 12.9152 10.5006 12.9152Z" fill="black"/>
</svg>
